<svg width="588" height="515" viewBox="0 0 588 515" fill="none" xmlns="http://www.w3.org/2000/svg">
<rect x="2.83764" y="1.55513" width="369.597" height="66.9229" rx="14.4493" fill="white" stroke="#155129" stroke-width="1.52097"/>
<path d="M26.219 43V27.5137H31.4517C32.6666 27.5137 33.6597 27.733 34.431 28.1716C35.2073 28.6051 35.782 29.1924 36.1551 29.9334C36.5281 30.6745 36.7146 31.5012 36.7146 32.4137C36.7146 33.3261 36.5281 34.1554 36.1551 34.9015C35.7871 35.6475 35.2174 36.2424 34.4461 36.686C33.6748 37.1246 32.6868 37.3439 31.482 37.3439H27.7314V35.6803H31.4215C32.2533 35.6803 32.9212 35.5366 33.4253 35.2493C33.9294 34.962 34.2949 34.5738 34.5218 34.0848C34.7536 33.5908 34.8696 33.0337 34.8696 32.4137C34.8696 31.7936 34.7536 31.2391 34.5218 30.7501C34.2949 30.2611 33.9269 29.878 33.4177 29.6007C32.9086 29.3184 32.2331 29.1773 31.3912 29.1773H28.0943V43H26.219ZM39.4935 43V31.3853H41.2176V33.1396H41.3386C41.5503 32.5649 41.9334 32.0986 42.488 31.7407C43.0425 31.3828 43.6676 31.2038 44.3633 31.2038C44.4943 31.2038 44.6582 31.2063 44.8548 31.2114C45.0514 31.2164 45.2001 31.224 45.3009 31.234V33.0488C45.2404 33.0337 45.1018 33.011 44.885 32.9808C44.6733 32.9455 44.449 32.9279 44.212 32.9279C43.6474 32.9279 43.1433 33.0463 42.6997 33.2833C42.2611 33.5152 41.9133 33.8378 41.6562 34.2512C41.4041 34.6595 41.2781 35.1258 41.2781 35.6501V43H39.4935ZM51.7812 43.242C50.7327 43.242 49.8127 42.9924 49.0212 42.4934C48.2348 41.9943 47.6198 41.2961 47.1762 40.3988C46.7376 39.5015 46.5183 38.4529 46.5183 37.2531C46.5183 36.0433 46.7376 34.9872 47.1762 34.0848C47.6198 33.1824 48.2348 32.4817 49.0212 31.9827C49.8127 31.4836 50.7327 31.234 51.7812 31.234C52.8298 31.234 53.7473 31.4836 54.5337 31.9827C55.3252 32.4817 55.9402 33.1824 56.3787 34.0848C56.8224 34.9872 57.0442 36.0433 57.0442 37.2531C57.0442 38.4529 56.8224 39.5015 56.3787 40.3988C55.9402 41.2961 55.3252 41.9943 54.5337 42.4934C53.7473 42.9924 52.8298 43.242 51.7812 43.242ZM51.7812 41.6389C52.5777 41.6389 53.2331 41.4347 53.7473 41.0264C54.2615 40.6181 54.6421 40.0812 54.8891 39.4158C55.1361 38.7503 55.2596 38.0295 55.2596 37.2531C55.2596 36.4768 55.1361 35.7534 54.8891 35.0829C54.6421 34.4125 54.2615 33.8705 53.7473 33.4572C53.2331 33.0438 52.5777 32.8371 51.7812 32.8371C50.9848 32.8371 50.3294 33.0438 49.8152 33.4572C49.301 33.8705 48.9204 34.4125 48.6734 35.0829C48.4264 35.7534 48.3029 36.4768 48.3029 37.2531C48.3029 38.0295 48.4264 38.7503 48.6734 39.4158C48.9204 40.0812 49.301 40.6181 49.8152 41.0264C50.3294 41.4347 50.9848 41.6389 51.7812 41.6389ZM59.7683 43V31.3853H61.4923V33.2001H61.6436C61.8855 32.58 62.2762 32.0986 62.8156 31.7558C63.355 31.408 64.0028 31.234 64.759 31.234C65.5252 31.234 66.1629 31.408 66.6721 31.7558C67.1863 32.0986 67.587 32.58 67.8744 33.2001H67.9954C68.2928 32.6002 68.7389 32.1238 69.3338 31.7709C69.9286 31.413 70.6419 31.234 71.4737 31.234C72.5122 31.234 73.3616 31.5592 74.022 32.2095C74.6824 32.8548 75.0126 33.8605 75.0126 35.2266V43H73.228V35.2266C73.228 34.3696 72.9936 33.7571 72.5248 33.3891C72.056 33.0211 71.504 32.8371 70.8688 32.8371C70.0521 32.8371 69.4195 33.0841 68.9708 33.5782C68.5221 34.0672 68.2978 34.6872 68.2978 35.4383V43H66.483V35.0451C66.483 34.3847 66.2688 33.8529 65.8403 33.4496C65.4118 33.0413 64.8598 32.8371 64.1843 32.8371C63.7205 32.8371 63.287 32.9606 62.8837 33.2076C62.4854 33.4547 62.1628 33.7975 61.9158 34.236C61.6738 34.6696 61.5528 35.1712 61.5528 35.7408V43H59.7683ZM82.9939 43.242C81.9454 43.242 81.0254 42.9924 80.2339 42.4934C79.4475 41.9943 78.8325 41.2961 78.3889 40.3988C77.9503 39.5015 77.731 38.4529 77.731 37.2531C77.731 36.0433 77.9503 34.9872 78.3889 34.0848C78.8325 33.1824 79.4475 32.4817 80.2339 31.9827C81.0254 31.4836 81.9454 31.234 82.9939 31.234C84.0425 31.234 84.9599 31.4836 85.7464 31.9827C86.5378 32.4817 87.1528 33.1824 87.5914 34.0848C88.035 34.9872 88.2568 36.0433 88.2568 37.2531C88.2568 38.4529 88.035 39.5015 87.5914 40.3988C87.1528 41.2961 86.5378 41.9943 85.7464 42.4934C84.9599 42.9924 84.0425 43.242 82.9939 43.242ZM82.9939 41.6389C83.7904 41.6389 84.4458 41.4347 84.9599 41.0264C85.4741 40.6181 85.8547 40.0812 86.1018 39.4158C86.3488 38.7503 86.4723 38.0295 86.4723 37.2531C86.4723 36.4768 86.3488 35.7534 86.1018 35.0829C85.8547 34.4125 85.4741 33.8705 84.9599 33.4572C84.4458 33.0438 83.7904 32.8371 82.9939 32.8371C82.1974 32.8371 81.5421 33.0438 81.0279 33.4572C80.5137 33.8705 80.1331 34.4125 79.8861 35.0829C79.6391 35.7534 79.5155 36.4768 79.5155 37.2531C79.5155 38.0295 79.6391 38.7503 79.8861 39.4158C80.1331 40.0812 80.5137 40.6181 81.0279 41.0264C81.5421 41.4347 82.1974 41.6389 82.9939 41.6389ZM98.6333 38.7655L98.6031 36.5575H98.966L104.047 31.3853H106.255L100.841 36.8599H100.69L98.6333 38.7655ZM96.9698 43V27.5137H98.7543V43H96.9698ZM104.35 43L99.8129 37.2531L101.083 36.013L106.618 43H104.35ZM112.793 43.242C111.744 43.242 110.824 42.9924 110.033 42.4934C109.246 41.9943 108.631 41.2961 108.187 40.3988C107.749 39.5015 107.53 38.4529 107.53 37.2531C107.53 36.0433 107.749 34.9872 108.187 34.0848C108.631 33.1824 109.246 32.4817 110.033 31.9827C110.824 31.4836 111.744 31.234 112.793 31.234C113.841 31.234 114.759 31.4836 115.545 31.9827C116.336 32.4817 116.951 33.1824 117.39 34.0848C117.834 34.9872 118.055 36.0433 118.055 37.2531C118.055 38.4529 117.834 39.5015 117.39 40.3988C116.951 41.2961 116.336 41.9943 115.545 42.4934C114.759 42.9924 113.841 43.242 112.793 43.242ZM112.793 41.6389C113.589 41.6389 114.244 41.4347 114.759 41.0264C115.273 40.6181 115.653 40.0812 115.9 39.4158C116.147 38.7503 116.271 38.0295 116.271 37.2531C116.271 36.4768 116.147 35.7534 115.9 35.0829C115.653 34.4125 115.273 33.8705 114.759 33.4572C114.244 33.0438 113.589 32.8371 112.793 32.8371C111.996 32.8371 111.341 33.0438 110.827 33.4572C110.312 33.8705 109.932 34.4125 109.685 35.0829C109.438 35.7534 109.314 36.4768 109.314 37.2531C109.314 38.0295 109.438 38.7503 109.685 39.4158C109.932 40.0812 110.312 40.6181 110.827 41.0264C111.341 41.4347 111.996 41.6389 112.793 41.6389ZM125.165 43.242C124.197 43.242 123.343 42.9975 122.602 42.5085C121.861 42.0145 121.281 41.3188 120.863 40.4215C120.444 39.5191 120.235 38.4529 120.235 37.2229C120.235 36.0029 120.444 34.9443 120.863 34.047C121.281 33.1497 121.863 32.4565 122.609 31.9675C123.356 31.4785 124.218 31.234 125.196 31.234C125.952 31.234 126.549 31.3601 126.988 31.6121C127.431 31.8591 127.769 32.1414 128.001 32.459C128.238 32.7716 128.422 33.0287 128.553 33.2303H128.704V27.5137H130.489V43H128.765V41.2154H128.553C128.422 41.4272 128.235 41.6944 127.993 42.017C127.751 42.3346 127.406 42.6194 126.957 42.8715C126.509 43.1185 125.911 43.242 125.165 43.242ZM125.407 41.6389C126.123 41.6389 126.728 41.4524 127.222 41.0793C127.716 40.7013 128.092 40.1795 128.349 39.5141C128.606 38.8436 128.734 38.0698 128.734 37.1926C128.734 36.3256 128.608 35.5669 128.356 34.9166C128.104 34.2612 127.731 33.7521 127.237 33.3891C126.743 33.0211 126.133 32.8371 125.407 32.8371C124.651 32.8371 124.021 33.0312 123.517 33.4194C123.018 33.8025 122.642 34.3242 122.39 34.9846C122.143 35.64 122.02 36.376 122.02 37.1926C122.02 38.0194 122.146 38.7705 122.398 39.446C122.655 40.1165 123.033 40.6508 123.532 41.0491C124.036 41.4423 124.661 41.6389 125.407 41.6389Z" fill="#CACACA"/>
<rect x="400.53" y="0.794647" width="185.559" height="68.4439" rx="8.07999" fill="#155129"/>
<path d="M466.325 43.0166H462.816L468.162 27.5303H472.382L477.72 43.0166H474.212L470.332 31.0692H470.212L466.325 43.0166ZM466.106 36.9294H474.393V39.4853H466.106V36.9294ZM479.524 47.3721V31.4019H482.7V33.3528H482.843C482.984 33.0402 483.189 32.7226 483.456 32.4C483.728 32.0723 484.081 31.8001 484.514 31.5833C484.953 31.3615 485.497 31.2506 486.148 31.2506C486.995 31.2506 487.776 31.4724 488.492 31.9161C489.208 32.3546 489.78 33.0175 490.208 33.9048C490.637 34.787 490.851 35.8935 490.851 37.2244C490.851 38.5199 490.642 39.6138 490.223 40.5061C489.81 41.3933 489.245 42.0663 488.53 42.5251C487.819 42.9788 487.022 43.2056 486.14 43.2056C485.515 43.2056 484.983 43.1023 484.545 42.8956C484.111 42.6889 483.756 42.4293 483.478 42.1167C483.201 41.7992 482.989 41.479 482.843 41.1564H482.745V47.3721H479.524ZM482.677 37.2092C482.677 37.8999 482.773 38.5023 482.964 39.0165C483.156 39.5307 483.433 39.9314 483.796 40.2188C484.159 40.5011 484.6 40.6422 485.119 40.6422C485.644 40.6422 486.087 40.4986 486.45 40.2112C486.813 39.9188 487.088 39.5155 487.274 39.0013C487.466 38.4821 487.562 37.8847 487.562 37.2092C487.562 36.5388 487.468 35.949 487.282 35.4398C487.095 34.9306 486.821 34.5324 486.458 34.2451C486.095 33.9577 485.649 33.814 485.119 33.814C484.595 33.814 484.151 33.9527 483.788 34.2299C483.431 34.5072 483.156 34.9004 482.964 35.4096C482.773 35.9187 482.677 36.5186 482.677 37.2092ZM492.999 47.3721V31.4019H496.174V33.3528H496.318C496.459 33.0402 496.663 32.7226 496.931 32.4C497.203 32.0723 497.556 31.8001 497.989 31.5833C498.428 31.3615 498.972 31.2506 499.623 31.2506C500.47 31.2506 501.251 31.4724 501.967 31.9161C502.683 32.3546 503.255 33.0175 503.683 33.9048C504.112 34.787 504.326 35.8935 504.326 37.2244C504.326 38.5199 504.117 39.6138 503.698 40.5061C503.285 41.3933 502.72 42.0663 502.005 42.5251C501.294 42.9788 500.497 43.2056 499.615 43.2056C498.99 43.2056 498.458 43.1023 498.02 42.8956C497.586 42.6889 497.231 42.4293 496.953 42.1167C496.676 41.7992 496.464 41.479 496.318 41.1564H496.22V47.3721H492.999ZM496.152 37.2092C496.152 37.8999 496.248 38.5023 496.439 39.0165C496.631 39.5307 496.908 39.9314 497.271 40.2188C497.634 40.5011 498.075 40.6422 498.594 40.6422C499.118 40.6422 499.562 40.4986 499.925 40.2112C500.288 39.9188 500.563 39.5155 500.749 39.0013C500.941 38.4821 501.037 37.8847 501.037 37.2092C501.037 36.5388 500.943 35.949 500.757 35.4398C500.57 34.9306 500.296 34.5324 499.933 34.2451C499.57 33.9577 499.124 33.814 498.594 33.814C498.07 33.814 497.626 33.9527 497.263 34.2299C496.905 34.5072 496.631 34.9004 496.439 35.4096C496.248 35.9187 496.152 36.5186 496.152 37.2092ZM509.695 27.5303V43.0166H506.473V27.5303H509.695ZM514.264 47.3721C513.856 47.3721 513.472 47.3393 513.115 47.2738C512.762 47.2133 512.469 47.1352 512.237 47.0394L512.963 44.6348C513.341 44.7507 513.682 44.8137 513.984 44.8238C514.292 44.8339 514.556 44.7633 514.778 44.6121C515.005 44.4609 515.189 44.2038 515.33 43.8408L515.519 43.3493L511.353 31.4019H514.74L517.145 39.9314H517.266L519.693 31.4019H523.103L518.589 44.2718C518.372 44.8969 518.077 45.4414 517.704 45.9051C517.336 46.374 516.87 46.7344 516.306 46.9865C515.741 47.2436 515.06 47.3721 514.264 47.3721Z" fill="white"/>
<path d="M12.3788 129.005C12.2751 128.129 11.8545 127.449 11.117 126.965C10.3796 126.481 9.47509 126.239 8.40349 126.239C7.61996 126.239 6.93437 126.366 6.34672 126.619C5.76483 126.873 5.30969 127.221 4.9813 127.665C4.65866 128.109 4.49735 128.613 4.49735 129.177C4.49735 129.65 4.60969 130.056 4.83438 130.396C5.06483 130.73 5.35866 131.009 5.71586 131.234C6.07306 131.453 6.44754 131.635 6.8393 131.779C7.23107 131.917 7.59115 132.029 7.91954 132.116L9.71706 132.6C10.178 132.721 10.6907 132.888 11.2553 133.101C11.8257 133.314 12.3701 133.605 12.8886 133.974C13.4129 134.337 13.845 134.803 14.1849 135.374C14.5248 135.944 14.6948 136.644 14.6948 137.474C14.6948 138.43 14.4442 139.294 13.9429 140.066C13.4475 140.838 12.7216 141.452 11.7652 141.907C10.8146 142.362 9.65945 142.59 8.29979 142.59C7.03231 142.59 5.93479 142.385 5.00722 141.976C4.08542 141.567 3.3595 140.997 2.82946 140.265C2.30519 139.533 2.00848 138.683 1.93935 137.716H4.15167C4.20929 138.384 4.43397 138.937 4.82574 139.375C5.22327 139.807 5.7245 140.13 6.32943 140.343C6.94013 140.55 7.59691 140.654 8.29979 140.654C9.11789 140.654 9.85245 140.521 10.5035 140.256C11.1545 139.985 11.6701 139.611 12.0504 139.133C12.4306 138.649 12.6207 138.084 12.6207 137.439C12.6207 136.851 12.4565 136.373 12.1281 136.004C11.7998 135.636 11.3677 135.336 10.8319 135.106C10.2961 134.875 9.71706 134.674 9.09484 134.501L6.91708 133.879C5.53438 133.481 4.43974 132.914 3.63316 132.176C2.82658 131.439 2.42329 130.474 2.42329 129.281C2.42329 128.29 2.69119 127.426 3.22699 126.688C3.76855 125.945 4.49447 125.369 5.40475 124.96C6.32079 124.545 7.34342 124.338 8.47262 124.338C9.61336 124.338 10.6273 124.542 11.5146 124.951C12.4018 125.355 13.1047 125.908 13.6232 126.611C14.1475 127.314 14.424 128.112 14.4528 129.005H12.3788ZM26.3074 136.851V129.005H28.3468V142.278H26.3074V140.032H26.1691C25.858 140.706 25.374 141.279 24.7172 141.751C24.0605 142.218 23.2308 142.451 22.2284 142.451C21.3988 142.451 20.6613 142.27 20.016 141.907C19.3708 141.538 18.8638 140.985 18.4951 140.248C18.1264 139.504 17.942 138.568 17.942 137.439V129.005H19.9815V137.301C19.9815 138.269 20.2523 139.041 20.7938 139.617C21.3411 140.193 22.0383 140.481 22.8852 140.481C23.3922 140.481 23.9078 140.351 24.4321 140.092C24.9621 139.833 25.4057 139.435 25.7629 138.899C26.1259 138.364 26.3074 137.681 26.3074 136.851ZM32.3588 142.278V124.58H34.3983V131.113H34.5712C34.721 130.883 34.9284 130.589 35.1934 130.232C35.4642 129.869 35.8502 129.546 36.3514 129.264C36.8584 128.976 37.544 128.832 38.4082 128.832C39.5259 128.832 40.511 129.111 41.3637 129.67C42.2164 130.229 42.8818 131.021 43.36 132.046C43.8382 133.072 44.0773 134.282 44.0773 135.676C44.0773 137.082 43.8382 138.3 43.36 139.332C42.8818 140.357 42.2193 141.152 41.3724 141.717C40.5254 142.276 39.5489 142.555 38.4427 142.555C37.5901 142.555 36.9074 142.414 36.3946 142.132C35.8819 141.844 35.4872 141.518 35.2107 141.155C34.9341 140.786 34.721 140.481 34.5712 140.239H34.3292V142.278H32.3588ZM34.3638 135.641C34.3638 136.644 34.5107 137.528 34.8045 138.295C35.0983 139.055 35.5275 139.651 36.0921 140.083C36.6568 140.51 37.3481 140.723 38.1662 140.723C39.0189 140.723 39.7304 140.498 40.3008 140.049C40.8769 139.594 41.309 138.983 41.597 138.217C41.8909 137.445 42.0378 136.586 42.0378 135.641C42.0378 134.708 41.8937 133.867 41.6057 133.118C41.3234 132.363 40.8942 131.767 40.318 131.329C39.7477 130.886 39.0304 130.664 38.1662 130.664C37.3366 130.664 36.6395 130.874 36.0749 131.295C35.5103 131.709 35.0839 132.291 34.7959 133.04C34.5078 133.783 34.3638 134.651 34.3638 135.641ZM54.8019 133.74V135.641H47.0587V133.74H54.8019ZM64.1632 129.005V130.733H57.2843V129.005H64.1632ZM59.2892 125.824H61.3287V138.476C61.3287 139.052 61.4122 139.484 61.5793 139.772C61.7521 140.055 61.971 140.245 62.2361 140.343C62.5068 140.435 62.792 140.481 63.0916 140.481C63.3163 140.481 63.5007 140.469 63.6447 140.446C63.7887 140.418 63.904 140.395 63.9904 140.377L64.4052 142.209C64.2669 142.261 64.0739 142.313 63.8262 142.365C63.5784 142.423 63.2645 142.451 62.8842 142.451C62.3081 142.451 61.7435 142.327 61.1904 142.08C60.6431 141.832 60.1879 141.455 59.825 140.948C59.4678 140.441 59.2892 139.801 59.2892 139.029V125.824ZM72.481 142.555C71.2827 142.555 70.2313 142.27 69.3267 141.699C68.428 141.129 67.7251 140.331 67.2181 139.306C66.7169 138.28 66.4663 137.082 66.4663 135.711C66.4663 134.328 66.7169 133.121 67.2181 132.09C67.7251 131.058 68.428 130.258 69.3267 129.687C70.2313 129.117 71.2827 128.832 72.481 128.832C73.6794 128.832 74.7279 129.117 75.6267 129.687C76.5312 130.258 77.2341 131.058 77.7353 132.09C78.2423 133.121 78.4958 134.328 78.4958 135.711C78.4958 137.082 78.2423 138.28 77.7353 139.306C77.2341 140.331 76.5312 141.129 75.6267 141.699C74.7279 142.27 73.6794 142.555 72.481 142.555ZM72.481 140.723C73.3913 140.723 74.1403 140.49 74.7279 140.023C75.3156 139.556 75.7506 138.943 76.0329 138.182C76.3152 137.422 76.4563 136.598 76.4563 135.711C76.4563 134.823 76.3152 133.997 76.0329 133.23C75.7506 132.464 75.3156 131.845 74.7279 131.372C74.1403 130.9 73.3913 130.664 72.481 130.664C71.5708 130.664 70.8218 130.9 70.2341 131.372C69.6465 131.845 69.2115 132.464 68.9292 133.23C68.6469 133.997 68.5058 134.823 68.5058 135.711C68.5058 136.598 68.6469 137.422 68.9292 138.182C69.2115 138.943 69.6465 139.556 70.2341 140.023C70.8218 140.49 71.5708 140.723 72.481 140.723ZM87.3818 129.005V130.733H80.5029V129.005H87.3818ZM82.5078 125.824H84.5473V138.476C84.5473 139.052 84.6308 139.484 84.7979 139.772C84.9708 140.055 85.1897 140.245 85.4547 140.343C85.7255 140.435 86.0107 140.481 86.3102 140.481C86.5349 140.481 86.7193 140.469 86.8633 140.446C87.0074 140.418 87.1226 140.395 87.209 140.377L87.6238 142.209C87.4855 142.261 87.2925 142.313 87.0448 142.365C86.7971 142.423 86.4831 142.451 86.1028 142.451C85.5267 142.451 84.9621 142.327 84.409 142.08C83.8617 141.832 83.4066 141.455 83.0436 140.948C82.6864 140.441 82.5078 139.801 82.5078 139.029V125.824ZM94.3559 142.59C93.5147 142.59 92.7513 142.431 92.0658 142.114C91.3802 141.792 90.8357 141.328 90.4324 140.723C90.0291 140.112 89.8275 139.375 89.8275 138.511C89.8275 137.75 89.9773 137.134 90.2769 136.661C90.5765 136.183 90.9769 135.809 91.4781 135.538C91.9793 135.267 92.5324 135.065 93.1374 134.933C93.748 134.795 94.3616 134.685 94.9781 134.604C95.7847 134.501 96.4386 134.423 96.9398 134.371C97.4468 134.314 97.8155 134.218 98.046 134.086C98.2822 133.953 98.4003 133.723 98.4003 133.395V133.325C98.4003 132.473 98.1669 131.81 97.7003 131.338C97.2394 130.865 96.5394 130.629 95.6003 130.629C94.6266 130.629 93.8633 130.842 93.3102 131.269C92.7571 131.695 92.3682 132.15 92.1435 132.634L90.2077 131.943C90.5534 131.136 91.0143 130.508 91.5905 130.059C92.1723 129.604 92.8061 129.287 93.4917 129.108C94.183 128.924 94.8629 128.832 95.5312 128.832C95.9575 128.832 96.4472 128.884 97.0003 128.987C97.5591 129.085 98.0978 129.29 98.6163 129.601C99.1406 129.912 99.5756 130.381 99.9212 131.009C100.267 131.637 100.44 132.479 100.44 133.533V142.278H98.4003V140.481H98.2966C98.1583 140.769 97.9278 141.077 97.6052 141.406C97.2826 141.734 96.8534 142.013 96.3176 142.244C95.7818 142.474 95.1279 142.59 94.3559 142.59ZM94.667 140.758C95.4735 140.758 96.1534 140.599 96.7065 140.282C97.2653 139.965 97.6859 139.556 97.9682 139.055C98.2562 138.554 98.4003 138.027 98.4003 137.474V135.607C98.3139 135.711 98.1237 135.806 97.8299 135.892C97.5418 135.973 97.2077 136.045 96.8274 136.108C96.453 136.166 96.0871 136.218 95.7299 136.264C95.3785 136.304 95.0933 136.339 94.8744 136.367C94.3443 136.437 93.8489 136.549 93.388 136.704C92.9328 136.854 92.5641 137.082 92.2818 137.387C92.0053 137.687 91.867 138.096 91.867 138.614C91.867 139.323 92.1291 139.859 92.6534 140.222C93.1834 140.579 93.8546 140.758 94.667 140.758ZM106.202 124.58V142.278H104.162V124.58H106.202Z" fill="black" fill-opacity="0.5"/>
<path d="M3.42575 183.999L8.68003 198.898H8.88744L14.1417 183.999H16.3886L9.8899 201.698H7.67757L1.17886 183.999H3.42575ZM23.0256 201.975C21.8272 201.975 20.7758 201.689 19.8713 201.119C18.9725 200.549 18.2697 199.751 17.7627 198.725C17.2614 197.7 17.0108 196.501 17.0108 195.13C17.0108 193.747 17.2614 192.54 17.7627 191.509C18.2697 190.478 18.9725 189.677 19.8713 189.107C20.7758 188.536 21.8272 188.251 23.0256 188.251C24.2239 188.251 25.2725 188.536 26.1712 189.107C27.0758 189.677 27.7786 190.478 28.2799 191.509C28.7869 192.54 29.0404 193.747 29.0404 195.13C29.0404 196.501 28.7869 197.7 28.2799 198.725C27.7786 199.751 27.0758 200.549 26.1712 201.119C25.2725 201.689 24.2239 201.975 23.0256 201.975ZM23.0256 200.142C23.9359 200.142 24.6848 199.909 25.2725 199.442C25.8601 198.976 26.2951 198.362 26.5774 197.602C26.8597 196.841 27.0009 196.017 27.0009 195.13C27.0009 194.243 26.8597 193.416 26.5774 192.65C26.2951 191.884 25.8601 191.264 25.2725 190.792C24.6848 190.319 23.9359 190.083 23.0256 190.083C22.1153 190.083 21.3663 190.319 20.7787 190.792C20.191 191.264 19.7561 191.884 19.4738 192.65C19.1915 193.416 19.0503 194.243 19.0503 195.13C19.0503 196.017 19.1915 196.841 19.4738 197.602C19.7561 198.362 20.191 198.976 20.7787 199.442C21.3663 199.909 22.1153 200.142 23.0256 200.142ZM40.519 196.271V188.424H42.5585V201.698H40.519V199.451H40.3807C40.0696 200.125 39.5856 200.698 38.9289 201.171C38.2721 201.637 37.4424 201.871 36.44 201.871C35.6104 201.871 34.8729 201.689 34.2277 201.326C33.5824 200.958 33.0754 200.405 32.7067 199.667C32.338 198.924 32.1536 197.988 32.1536 196.859V188.424H34.1931V196.72C34.1931 197.688 34.4639 198.46 35.0054 199.036C35.5527 199.612 36.2499 199.9 37.0968 199.9C37.6038 199.9 38.1194 199.771 38.6437 199.512C39.1737 199.252 39.6173 198.855 39.9745 198.319C40.3375 197.783 40.519 197.1 40.519 196.271ZM51.6865 201.975C50.442 201.975 49.3704 201.681 48.4717 201.093C47.5729 200.505 46.8816 199.696 46.3976 198.665C45.9137 197.633 45.6717 196.455 45.6717 195.13C45.6717 193.782 45.9194 192.592 46.4149 191.561C46.9161 190.524 47.6132 189.715 48.5062 189.133C49.405 188.545 50.4535 188.251 51.6519 188.251C52.5852 188.251 53.4264 188.424 54.1753 188.77C54.9243 189.115 55.5379 189.599 56.0161 190.222C56.4942 190.844 56.7909 191.57 56.9062 192.399H54.8667C54.7111 191.794 54.3655 191.259 53.8297 190.792C53.2996 190.319 52.5852 190.083 51.6865 190.083C50.8914 190.083 50.1943 190.291 49.5951 190.705C49.0017 191.115 48.5379 191.694 48.2038 192.443C47.8754 193.186 47.7112 194.059 47.7112 195.061C47.7112 196.087 47.8725 196.98 48.1951 197.74C48.5235 198.5 48.9844 199.091 49.5778 199.512C50.177 199.932 50.8799 200.142 51.6865 200.142C52.2165 200.142 52.6976 200.05 53.1297 199.866C53.5618 199.682 53.9276 199.417 54.2272 199.071C54.5268 198.725 54.7399 198.31 54.8667 197.826H56.9062C56.7909 198.61 56.5058 199.316 56.0506 199.944C55.6012 200.566 55.005 201.061 54.2617 201.43C53.5243 201.793 52.6659 201.975 51.6865 201.975ZM61.9271 193.713V201.698H59.8876V183.999H61.9271V190.498H62.1C62.4111 189.812 62.8777 189.268 63.4999 188.865C64.1279 188.456 64.9633 188.251 66.0061 188.251C66.9106 188.251 67.7028 188.433 68.3826 188.796C69.0624 189.153 69.5896 189.703 69.9641 190.446C70.3443 191.184 70.5345 192.123 70.5345 193.263V201.698H68.495V193.402C68.495 192.347 68.2213 191.532 67.674 190.956C67.1324 190.374 66.3806 190.083 65.4184 190.083C64.7501 190.083 64.151 190.224 63.6209 190.507C63.0967 190.789 62.6818 191.201 62.3765 191.743C62.0769 192.284 61.9271 192.941 61.9271 193.713ZM79.831 201.975C78.552 201.975 77.4487 201.692 76.5211 201.128C75.5993 200.557 74.8878 199.762 74.3866 198.742C73.8911 197.717 73.6434 196.524 73.6434 195.165C73.6434 193.805 73.8911 192.607 74.3866 191.57C74.8878 190.527 75.5849 189.715 76.4779 189.133C77.3767 188.545 78.4252 188.251 79.6236 188.251C80.3149 188.251 80.9976 188.366 81.6717 188.597C82.3458 188.827 82.9593 189.202 83.5124 189.72C84.0655 190.233 84.5062 190.913 84.8346 191.76C85.163 192.607 85.3272 193.649 85.3272 194.888V195.752H75.0952V193.989H83.2532C83.2532 193.24 83.1034 192.572 82.8038 191.984C82.51 191.397 82.0894 190.933 81.5421 190.593C81.0005 190.253 80.361 190.083 79.6236 190.083C78.8112 190.083 78.1084 190.285 77.5149 190.688C76.9273 191.086 76.475 191.604 76.1582 192.244C75.8413 192.883 75.6829 193.569 75.6829 194.301V195.476C75.6829 196.478 75.8557 197.328 76.2014 198.025C76.5528 198.717 77.0396 199.244 77.6619 199.607C78.2841 199.964 79.0071 200.142 79.831 200.142C80.3668 200.142 80.8507 200.068 81.2828 199.918C81.7207 199.762 82.098 199.532 82.4149 199.226C82.7318 198.915 82.9766 198.529 83.1495 198.068L85.1198 198.621C84.9124 199.29 84.5639 199.877 84.0742 200.384C83.5844 200.886 82.9795 201.277 82.2594 201.56C81.5392 201.836 80.7297 201.975 79.831 201.975ZM88.4297 201.698V188.424H90.4V190.429H90.5383C90.7803 189.772 91.2181 189.239 91.8519 188.83C92.4856 188.421 93.2 188.217 93.9951 188.217C94.1449 188.217 94.3321 188.219 94.5568 188.225C94.7815 188.231 94.9514 188.24 95.0667 188.251V190.325C94.9975 190.308 94.8391 190.282 94.5914 190.247C94.3494 190.207 94.093 190.187 93.8222 190.187C93.177 190.187 92.6008 190.322 92.0938 190.593C91.5926 190.858 91.1951 191.227 90.9013 191.699C90.6132 192.166 90.4692 192.699 90.4692 193.298V201.698H88.4297Z" fill="black" fill-opacity="0.5"/>
<path d="M8.16152 261.117H2.69983V243.419H8.40349C10.1203 243.419 11.5895 243.773 12.8109 244.482C14.0322 245.185 14.9685 246.196 15.6195 247.515C16.2705 248.829 16.596 250.402 16.596 252.234C16.596 254.077 16.2676 255.664 15.6108 256.995C14.9541 258.32 13.9977 259.34 12.7417 260.055C11.4858 260.763 9.95903 261.117 8.16152 261.117ZM4.84302 259.216H8.02325C9.48661 259.216 10.6994 258.934 11.6615 258.369C12.6236 257.805 13.3409 257.001 13.8133 255.958C14.2857 254.915 14.522 253.674 14.522 252.234C14.522 250.805 14.2886 249.575 13.822 248.544C13.3553 247.506 12.6582 246.711 11.7306 246.158C10.8031 245.6 9.64792 245.32 8.26522 245.32H4.84302V259.216ZM25.3071 261.394C24.1087 261.394 23.0573 261.109 22.1528 260.538C21.254 259.968 20.5511 259.17 20.0441 258.145C19.5429 257.119 19.2923 255.921 19.2923 254.55C19.2923 253.167 19.5429 251.96 20.0441 250.929C20.5511 249.897 21.254 249.097 22.1528 248.526C23.0573 247.956 24.1087 247.671 25.3071 247.671C26.5054 247.671 27.5539 247.956 28.4527 248.526C29.3572 249.097 30.0601 249.897 30.5613 250.929C31.0683 251.96 31.3218 253.167 31.3218 254.55C31.3218 255.921 31.0683 257.119 30.5613 258.145C30.0601 259.17 29.3572 259.968 28.4527 260.538C27.5539 261.109 26.5054 261.394 25.3071 261.394ZM25.3071 259.562C26.2173 259.562 26.9663 259.329 27.5539 258.862C28.1416 258.395 28.5766 257.782 28.8589 257.021C29.1412 256.261 29.2823 255.437 29.2823 254.55C29.2823 253.662 29.1412 252.836 28.8589 252.069C28.5766 251.303 28.1416 250.684 27.5539 250.211C26.9663 249.739 26.2173 249.503 25.3071 249.503C24.3968 249.503 23.6478 249.739 23.0602 250.211C22.4725 250.684 22.0375 251.303 21.7552 252.069C21.4729 252.836 21.3318 253.662 21.3318 254.55C21.3318 255.437 21.4729 256.261 21.7552 257.021C22.0375 257.782 22.4725 258.395 23.0602 258.862C23.6478 259.329 24.3968 259.562 25.3071 259.562ZM43.8375 250.816L42.0054 251.335C41.8901 251.03 41.7202 250.733 41.4955 250.445C41.2766 250.151 40.977 249.909 40.5967 249.719C40.2165 249.529 39.7297 249.434 39.1363 249.434C38.3239 249.434 37.647 249.621 37.1054 249.995C36.5696 250.364 36.3017 250.834 36.3017 251.404C36.3017 251.911 36.4861 252.311 36.8548 252.605C37.2235 252.899 37.7996 253.144 38.5832 253.34L40.5535 253.824C41.7404 254.112 42.6247 254.553 43.2066 255.146C43.7885 255.734 44.0794 256.491 44.0794 257.419C44.0794 258.179 43.8605 258.859 43.4226 259.458C42.9905 260.057 42.3856 260.53 41.6078 260.876C40.8301 261.221 39.9256 261.394 38.8943 261.394C37.5404 261.394 36.4198 261.1 35.5326 260.513C34.6454 259.925 34.0836 259.066 33.8474 257.937L35.7832 257.453C35.9676 258.168 36.3161 258.704 36.8289 259.061C37.3474 259.418 38.0243 259.597 38.8597 259.597C39.8103 259.597 40.5651 259.395 41.1239 258.992C41.6885 258.583 41.9708 258.093 41.9708 257.522C41.9708 257.062 41.8095 256.676 41.4869 256.364C41.1642 256.048 40.6688 255.811 40.0005 255.656L37.7881 255.137C36.5725 254.849 35.6795 254.403 35.1091 253.798C34.5445 253.187 34.2622 252.424 34.2622 251.508C34.2622 250.759 34.4725 250.096 34.8931 249.52C35.3194 248.944 35.8984 248.492 36.6301 248.163C37.3676 247.835 38.2029 247.671 39.1363 247.671C40.4498 247.671 41.4811 247.959 42.2301 248.535C42.9848 249.111 43.5206 249.871 43.8375 250.816ZM52.9223 247.844V249.572H46.0433V247.844H52.9223ZM48.0482 244.663H50.0877V257.315C50.0877 257.891 50.1713 258.323 50.3383 258.611C50.5112 258.894 50.7301 259.084 50.9951 259.182C51.2659 259.274 51.5511 259.32 51.8507 259.32C52.0754 259.32 52.2597 259.308 52.4037 259.285C52.5478 259.257 52.663 259.234 52.7494 259.216L53.1642 261.048C53.026 261.1 52.833 261.152 52.5852 261.204C52.3375 261.262 52.0235 261.29 51.6433 261.29C51.0671 261.29 50.5025 261.166 49.9494 260.919C49.4021 260.671 48.947 260.294 48.584 259.787C48.2268 259.28 48.0482 258.64 48.0482 257.868V244.663ZM59.8963 261.429C59.0551 261.429 58.2918 261.27 57.6062 260.953C56.9206 260.631 56.3761 260.167 55.9728 259.562C55.5696 258.951 55.3679 258.214 55.3679 257.35C55.3679 256.589 55.5177 255.973 55.8173 255.5C56.1169 255.022 56.5173 254.648 57.0185 254.377C57.5197 254.106 58.0728 253.904 58.6778 253.772C59.2885 253.634 59.902 253.524 60.5185 253.443C61.3251 253.34 61.979 253.262 62.4802 253.21C62.9872 253.153 63.3559 253.057 63.5864 252.925C63.8226 252.792 63.9407 252.562 63.9407 252.234V252.164C63.9407 251.312 63.7073 250.649 63.2407 250.177C62.7798 249.704 62.0798 249.468 61.1407 249.468C60.167 249.468 59.4037 249.681 58.8506 250.108C58.2975 250.534 57.9086 250.989 57.6839 251.473L55.7482 250.782C56.0938 249.975 56.5547 249.347 57.1309 248.898C57.7127 248.443 58.3465 248.126 59.0321 247.947C59.7234 247.763 60.4033 247.671 61.0716 247.671C61.4979 247.671 61.9876 247.723 62.5407 247.826C63.0995 247.924 63.6382 248.129 64.1567 248.44C64.681 248.751 65.116 249.22 65.4617 249.848C65.8073 250.476 65.9802 251.318 65.9802 252.372V261.117H63.9407V259.32H63.837C63.6987 259.608 63.4683 259.916 63.1456 260.245C62.823 260.573 62.3938 260.852 61.858 261.083C61.3222 261.313 60.6683 261.429 59.8963 261.429ZM60.2074 259.597C61.014 259.597 61.6938 259.438 62.2469 259.121C62.8057 258.804 63.2263 258.395 63.5086 257.894C63.7966 257.393 63.9407 256.866 63.9407 256.313V254.446C63.8543 254.55 63.6641 254.645 63.3703 254.731C63.0823 254.812 62.7481 254.884 62.3679 254.947C61.9934 255.005 61.6275 255.057 61.2703 255.103C60.9189 255.143 60.6337 255.178 60.4148 255.206C59.8847 255.276 59.3893 255.388 58.9284 255.543C58.4732 255.693 58.1045 255.921 57.8222 256.226C57.5457 256.526 57.4074 256.935 57.4074 257.453C57.4074 258.162 57.6695 258.698 58.1938 259.061C58.7239 259.418 59.395 259.597 60.2074 259.597ZM80.0816 247.844L75.173 261.117H73.0989L68.1903 247.844H70.4027L74.0668 258.421H74.2051L77.8693 247.844H80.0816ZM86.2757 261.429C85.4345 261.429 84.6712 261.27 83.9856 260.953C83.3 260.631 82.7555 260.167 82.3523 259.562C81.949 258.951 81.7473 258.214 81.7473 257.35C81.7473 256.589 81.8971 255.973 82.1967 255.5C82.4963 255.022 82.8967 254.648 83.3979 254.377C83.8992 254.106 84.4522 253.904 85.0572 253.772C85.6679 253.634 86.2814 253.524 86.8979 253.443C87.7045 253.34 88.3584 253.262 88.8596 253.21C89.3666 253.153 89.7353 253.057 89.9658 252.925C90.202 252.792 90.3201 252.562 90.3201 252.234V252.164C90.3201 251.312 90.0868 250.649 89.6201 250.177C89.1592 249.704 88.4592 249.468 87.5201 249.468C86.5465 249.468 85.7831 249.681 85.23 250.108C84.6769 250.534 84.288 250.989 84.0634 251.473L82.1276 250.782C82.4732 249.975 82.9341 249.347 83.5103 248.898C84.0922 248.443 84.7259 248.126 85.4115 247.947C86.1028 247.763 86.7827 247.671 87.451 247.671C87.8773 247.671 88.367 247.723 88.9201 247.826C89.4789 247.924 90.0176 248.129 90.5361 248.44C91.0604 248.751 91.4954 249.22 91.8411 249.848C92.1867 250.476 92.3596 251.318 92.3596 252.372V261.117H90.3201V259.32H90.2164C90.0781 259.608 89.8477 259.916 89.525 260.245C89.2024 260.573 88.7732 260.852 88.2374 261.083C87.7016 261.313 87.0477 261.429 86.2757 261.429ZM86.5868 259.597C87.3934 259.597 88.0732 259.438 88.6263 259.121C89.1851 258.804 89.6057 258.395 89.888 257.894C90.1761 257.393 90.3201 256.866 90.3201 256.313V254.446C90.2337 254.55 90.0436 254.645 89.7497 254.731C89.4617 254.812 89.1275 254.884 88.7473 254.947C88.3728 255.005 88.0069 255.057 87.6497 255.103C87.2983 255.143 87.0131 255.178 86.7942 255.206C86.2642 255.276 85.7687 255.388 85.3078 255.543C84.8526 255.693 84.4839 255.921 84.2016 256.226C83.9251 256.526 83.7868 256.935 83.7868 257.453C83.7868 258.162 84.049 258.698 84.5732 259.061C85.1033 259.418 85.7745 259.597 86.5868 259.597Z" fill="black" fill-opacity="0.5"/>
<path d="M2.94134 324.023V320.938H17.477V324.023H12.0585V338.636H8.35981V324.023H2.94134ZM23.8742 338.896C22.5318 338.896 21.3709 338.611 20.3915 338.04C19.4178 337.464 18.666 336.663 18.136 335.638C17.6059 334.606 17.3409 333.411 17.3409 332.051C17.3409 330.68 17.6059 329.482 18.136 328.456C18.666 327.425 19.4178 326.624 20.3915 326.054C21.3709 325.478 22.5318 325.19 23.8742 325.19C25.2166 325.19 26.3746 325.478 27.3482 326.054C28.3277 326.624 29.0824 327.425 29.6124 328.456C30.1425 329.482 30.4075 330.68 30.4075 332.051C30.4075 333.411 30.1425 334.606 29.6124 335.638C29.0824 336.663 28.3277 337.464 27.3482 338.04C26.3746 338.611 25.2166 338.896 23.8742 338.896ZM23.8915 336.044C24.5022 336.044 25.012 335.871 25.4211 335.525C25.8301 335.174 26.1384 334.696 26.3458 334.091C26.5589 333.486 26.6655 332.797 26.6655 332.025C26.6655 331.253 26.5589 330.565 26.3458 329.96C26.1384 329.355 25.8301 328.877 25.4211 328.525C25.012 328.174 24.5022 327.998 23.8915 327.998C23.275 327.998 22.7565 328.174 22.3359 328.525C21.9211 328.877 21.6071 329.355 21.394 329.96C21.1866 330.565 21.0829 331.253 21.0829 332.025C21.0829 332.797 21.1866 333.486 21.394 334.091C21.6071 334.696 21.9211 335.174 22.3359 335.525C22.7565 335.871 23.275 336.044 23.8915 336.044ZM39.8617 325.362V328.128H31.868V325.362H39.8617ZM33.6828 322.182H37.3642V334.557C37.3642 334.897 37.4161 335.162 37.5198 335.353C37.6235 335.537 37.7675 335.667 37.9519 335.741C38.142 335.816 38.3609 335.854 38.6086 335.854C38.7815 335.854 38.9543 335.839 39.1272 335.811C39.3 335.776 39.4325 335.75 39.5247 335.733L40.1037 338.472C39.9193 338.53 39.6601 338.596 39.3259 338.671C38.9918 338.752 38.5856 338.801 38.1074 338.818C37.2202 338.852 36.4424 338.734 35.7741 338.464C35.1115 338.193 34.5959 337.772 34.2272 337.202C33.8585 336.632 33.677 335.911 33.6828 335.041V322.182ZM46.045 338.887C45.1981 338.887 44.4434 338.74 43.7808 338.446C43.1183 338.147 42.594 337.706 42.208 337.124C41.8277 336.536 41.6376 335.805 41.6376 334.929C41.6376 334.192 41.773 333.572 42.0438 333.071C42.3146 332.57 42.6833 332.167 43.15 331.861C43.6166 331.556 44.1467 331.325 44.7401 331.17C45.3392 331.014 45.9672 330.905 46.624 330.841C47.396 330.761 48.0182 330.686 48.4907 330.617C48.9631 330.542 49.3059 330.432 49.519 330.288C49.7322 330.144 49.8388 329.931 49.8388 329.649V329.597C49.8388 329.05 49.6659 328.626 49.3203 328.327C48.9804 328.027 48.4964 327.877 47.8684 327.877C47.2059 327.877 46.6787 328.024 46.287 328.318C45.8952 328.606 45.6359 328.969 45.5092 329.407L42.1043 329.13C42.2771 328.324 42.617 327.627 43.124 327.039C43.631 326.446 44.2849 325.99 45.0857 325.674C45.8923 325.351 46.8256 325.19 47.8857 325.19C48.6232 325.19 49.3289 325.276 50.003 325.449C50.6828 325.622 51.2849 325.89 51.8091 326.253C52.3392 326.616 52.7569 327.082 53.0622 327.653C53.3676 328.217 53.5202 328.894 53.5202 329.683V338.636H50.0289V336.796H49.9252C49.712 337.211 49.4269 337.576 49.0697 337.893C48.7125 338.204 48.2832 338.449 47.782 338.628C47.2808 338.801 46.7018 338.887 46.045 338.887ZM47.0993 336.346C47.6409 336.346 48.119 336.24 48.5339 336.027C48.9487 335.808 49.2742 335.514 49.5104 335.145C49.7466 334.776 49.8647 334.359 49.8647 333.892V332.483C49.7495 332.558 49.5911 332.627 49.3894 332.691C49.1935 332.748 48.9717 332.803 48.724 332.855C48.4762 332.901 48.2285 332.944 47.9808 332.985C47.733 333.019 47.5084 333.051 47.3067 333.08C46.8746 333.143 46.4973 333.244 46.1746 333.382C45.852 333.52 45.6014 333.708 45.4228 333.944C45.2442 334.174 45.1549 334.462 45.1549 334.808C45.1549 335.309 45.3364 335.692 45.6993 335.957C46.068 336.217 46.5347 336.346 47.0993 336.346ZM60.0578 320.938V338.636H56.3764V320.938H60.0578Z" fill="black"/>
<path d="M503.351 338.212V316.089H504.768V338.212H503.351ZM507.11 323.391C507.041 322.694 506.744 322.153 506.22 321.767C505.696 321.381 504.984 321.188 504.085 321.188C503.475 321.188 502.959 321.274 502.539 321.447C502.118 321.614 501.795 321.847 501.571 322.147C501.352 322.447 501.242 322.787 501.242 323.167C501.231 323.484 501.297 323.76 501.441 323.996C501.591 324.233 501.795 324.437 502.055 324.61C502.314 324.777 502.613 324.924 502.953 325.051C503.293 325.172 503.656 325.275 504.042 325.362L505.632 325.742C506.404 325.915 507.113 326.145 507.758 326.433C508.404 326.721 508.962 327.076 509.435 327.496C509.907 327.917 510.273 328.412 510.532 328.983C510.797 329.553 510.933 330.207 510.938 330.944C510.933 332.028 510.656 332.967 510.109 333.762C509.567 334.551 508.784 335.165 507.758 335.602C506.739 336.035 505.508 336.251 504.068 336.251C502.639 336.251 501.395 336.032 500.335 335.594C499.281 335.156 498.457 334.508 497.863 333.649C497.276 332.785 496.967 331.716 496.939 330.443H500.56C500.6 331.037 500.77 331.532 501.069 331.93C501.375 332.321 501.781 332.618 502.288 332.82C502.801 333.016 503.38 333.114 504.025 333.114C504.659 333.114 505.209 333.021 505.676 332.837C506.148 332.653 506.514 332.396 506.773 332.068C507.032 331.74 507.162 331.362 507.162 330.936C507.162 330.538 507.044 330.204 506.808 329.933C506.577 329.663 506.237 329.432 505.788 329.242C505.344 329.052 504.8 328.879 504.155 328.724L502.227 328.24C500.735 327.877 499.557 327.309 498.693 326.537C497.829 325.765 497.399 324.725 497.405 323.417C497.399 322.346 497.685 321.41 498.261 320.609C498.843 319.808 499.641 319.183 500.655 318.733C501.669 318.284 502.821 318.059 504.111 318.059C505.425 318.059 506.571 318.284 507.551 318.733C508.536 319.183 509.302 319.808 509.85 320.609C510.397 321.41 510.679 322.337 510.697 323.391H507.11ZM518.984 336V333.304L525.284 327.47C525.82 326.952 526.269 326.485 526.632 326.07C527.001 325.656 527.28 325.249 527.47 324.852C527.661 324.449 527.756 324.014 527.756 323.547C527.756 323.029 527.638 322.582 527.401 322.208C527.165 321.827 526.842 321.536 526.433 321.335C526.024 321.127 525.561 321.024 525.042 321.024C524.501 321.024 524.028 321.133 523.625 321.352C523.222 321.571 522.91 321.885 522.691 322.294C522.473 322.703 522.363 323.19 522.363 323.754H518.811C518.811 322.596 519.073 321.591 519.598 320.738C520.122 319.886 520.857 319.226 521.801 318.759C522.746 318.293 523.835 318.059 525.068 318.059C526.335 318.059 527.439 318.284 528.378 318.733C529.323 319.177 530.057 319.794 530.582 320.583C531.106 321.372 531.368 322.277 531.368 323.296C531.368 323.965 531.235 324.624 530.97 325.275C530.711 325.926 530.247 326.649 529.579 327.445C528.911 328.234 527.969 329.182 526.753 330.288L524.169 332.82V332.941H531.601V336H518.984ZM534.313 336V333.304L540.613 327.47C541.148 326.952 541.598 326.485 541.961 326.07C542.329 325.656 542.609 325.249 542.799 324.852C542.989 324.449 543.084 324.014 543.084 323.547C543.084 323.029 542.966 322.582 542.73 322.208C542.494 321.827 542.171 321.536 541.762 321.335C541.353 321.127 540.889 321.024 540.371 321.024C539.829 321.024 539.357 321.133 538.953 321.352C538.55 321.571 538.239 321.885 538.02 322.294C537.801 322.703 537.692 323.19 537.692 323.754H534.14C534.14 322.596 534.402 321.591 534.926 320.738C535.451 319.886 536.185 319.226 537.13 318.759C538.075 318.293 539.164 318.059 540.397 318.059C541.664 318.059 542.767 318.284 543.706 318.733C544.651 319.177 545.386 319.794 545.91 320.583C546.434 321.372 546.697 322.277 546.697 323.296C546.697 323.965 546.564 324.624 546.299 325.275C546.04 325.926 545.576 326.649 544.908 327.445C544.239 328.234 543.297 329.182 542.082 330.288L539.498 332.82V332.941H546.93V336H534.313ZM556.581 336.389C555.094 336.383 553.815 336.017 552.744 335.291C551.678 334.565 550.857 333.514 550.281 332.137C549.71 330.76 549.428 329.104 549.434 327.168C549.434 325.238 549.719 323.593 550.289 322.233C550.866 320.874 551.686 319.84 552.752 319.131C553.824 318.417 555.1 318.059 556.581 318.059C558.061 318.059 559.335 318.417 560.4 319.131C561.472 319.845 562.296 320.882 562.872 322.242C563.448 323.596 563.733 325.238 563.728 327.168C563.728 329.11 563.439 330.769 562.863 332.146C562.293 333.523 561.475 334.574 560.409 335.3C559.343 336.026 558.067 336.389 556.581 336.389ZM556.581 333.286C557.595 333.286 558.404 332.777 559.009 331.757C559.614 330.737 559.914 329.207 559.908 327.168C559.908 325.826 559.77 324.708 559.493 323.815C559.222 322.922 558.836 322.251 558.335 321.801C557.84 321.352 557.255 321.127 556.581 321.127C555.572 321.127 554.766 321.631 554.161 322.64C553.556 323.648 553.251 325.157 553.245 327.168C553.245 328.528 553.38 329.663 553.651 330.573C553.928 331.477 554.317 332.157 554.818 332.612C555.319 333.062 555.907 333.286 556.581 333.286Z" fill="black"/>
<path d="M502.127 144.212V122.089H503.544V144.212H502.127ZM506.56 128.951C506.468 128.133 506.088 127.499 505.42 127.05C504.751 126.594 503.91 126.367 502.896 126.367C502.17 126.367 501.542 126.482 501.012 126.712C500.482 126.937 500.07 127.248 499.776 127.646C499.488 128.038 499.344 128.484 499.344 128.985C499.344 129.406 499.442 129.769 499.638 130.074C499.84 130.38 500.102 130.636 500.425 130.843C500.753 131.045 501.104 131.215 501.479 131.353C501.853 131.486 502.213 131.595 502.559 131.682L504.288 132.131C504.852 132.269 505.431 132.456 506.025 132.693C506.618 132.929 507.168 133.24 507.675 133.626C508.182 134.012 508.591 134.49 508.902 135.061C509.219 135.631 509.378 136.314 509.378 137.109C509.378 138.111 509.118 139.001 508.6 139.779C508.087 140.557 507.341 141.17 506.362 141.62C505.388 142.069 504.21 142.294 502.827 142.294C501.502 142.294 500.355 142.084 499.388 141.663C498.42 141.242 497.662 140.646 497.115 139.874C496.567 139.096 496.265 138.175 496.207 137.109H498.886C498.938 137.748 499.146 138.281 499.509 138.707C499.877 139.128 500.347 139.442 500.917 139.649C501.493 139.851 502.124 139.952 502.81 139.952C503.564 139.952 504.236 139.834 504.823 139.598C505.417 139.356 505.883 139.021 506.223 138.595C506.563 138.163 506.733 137.659 506.733 137.083C506.733 136.558 506.583 136.129 506.284 135.795C505.99 135.461 505.59 135.184 505.083 134.965C504.581 134.747 504.014 134.554 503.38 134.386L501.289 133.816C499.871 133.43 498.748 132.863 497.918 132.114C497.095 131.365 496.683 130.374 496.683 129.141C496.683 128.121 496.959 127.231 497.512 126.47C498.065 125.71 498.814 125.119 499.759 124.699C500.704 124.273 501.77 124.059 502.957 124.059C504.155 124.059 505.212 124.27 506.128 124.69C507.05 125.111 507.776 125.69 508.306 126.427C508.836 127.159 509.113 128 509.136 128.951H506.56ZM524.929 142.242C523.742 142.242 522.682 142.037 521.748 141.628C520.821 141.219 520.086 140.652 519.545 139.926C519.009 139.194 518.721 138.347 518.681 137.385H521.394C521.429 137.909 521.604 138.365 521.921 138.751C522.244 139.131 522.665 139.425 523.183 139.632C523.702 139.84 524.278 139.943 524.911 139.943C525.609 139.943 526.225 139.822 526.761 139.58C527.302 139.338 527.726 139.001 528.031 138.569C528.336 138.131 528.489 137.627 528.489 137.057C528.489 136.463 528.336 135.942 528.031 135.493C527.732 135.038 527.291 134.68 526.709 134.421C526.133 134.162 525.436 134.032 524.618 134.032H523.123V131.854H524.618C525.274 131.854 525.85 131.736 526.346 131.5C526.847 131.264 527.239 130.935 527.521 130.515C527.804 130.089 527.945 129.59 527.945 129.02C527.945 128.473 527.821 127.997 527.573 127.594C527.331 127.185 526.985 126.865 526.536 126.635C526.092 126.404 525.568 126.289 524.963 126.289C524.387 126.289 523.848 126.396 523.347 126.609C522.852 126.816 522.448 127.116 522.137 127.508C521.826 127.894 521.659 128.357 521.636 128.899H519.052C519.081 127.943 519.363 127.101 519.899 126.375C520.441 125.65 521.155 125.082 522.042 124.673C522.93 124.264 523.915 124.059 524.998 124.059C526.133 124.059 527.112 124.281 527.936 124.725C528.766 125.163 529.405 125.747 529.855 126.479C530.31 127.211 530.534 128.012 530.529 128.882C530.534 129.873 530.258 130.714 529.699 131.405C529.146 132.096 528.408 132.56 527.487 132.796V132.935C528.662 133.113 529.572 133.58 530.218 134.335C530.869 135.089 531.191 136.026 531.185 137.143C531.191 138.117 530.92 138.99 530.373 139.762C529.832 140.534 529.091 141.142 528.152 141.585C527.213 142.023 526.139 142.242 524.929 142.242ZM540.614 142.294C539.248 142.288 538.082 141.928 537.114 141.214C536.146 140.499 535.406 139.459 534.893 138.094C534.38 136.728 534.124 135.084 534.124 133.159C534.124 131.241 534.38 129.602 534.893 128.242C535.411 126.882 536.155 125.845 537.122 125.131C538.096 124.417 539.26 124.059 540.614 124.059C541.968 124.059 543.129 124.419 544.096 125.14C545.064 125.854 545.805 126.891 546.317 128.251C546.836 129.605 547.095 131.241 547.095 133.159C547.095 135.089 546.839 136.737 546.326 138.103C545.813 139.462 545.073 140.502 544.105 141.222C543.137 141.937 541.973 142.294 540.614 142.294ZM540.614 139.986C541.812 139.986 542.748 139.402 543.422 138.232C544.102 137.063 544.442 135.372 544.442 133.159C544.442 131.69 544.287 130.449 543.975 129.435C543.67 128.415 543.229 127.643 542.653 127.119C542.083 126.589 541.403 126.324 540.614 126.324C539.421 126.324 538.485 126.911 537.805 128.087C537.125 129.262 536.783 130.953 536.777 133.159C536.777 134.634 536.929 135.882 537.235 136.901C537.546 137.915 537.987 138.684 538.557 139.209C539.127 139.727 539.813 139.986 540.614 139.986ZM556.323 142.294C554.957 142.288 553.79 141.928 552.823 141.214C551.855 140.499 551.114 139.459 550.602 138.094C550.089 136.728 549.832 135.084 549.832 133.159C549.832 131.241 550.089 129.602 550.602 128.242C551.12 126.882 551.863 125.845 552.831 125.131C553.805 124.417 554.969 124.059 556.323 124.059C557.676 124.059 558.837 124.419 559.805 125.14C560.773 125.854 561.513 126.891 562.026 128.251C562.545 129.605 562.804 131.241 562.804 133.159C562.804 135.089 562.548 136.737 562.035 138.103C561.522 139.462 560.782 140.502 559.814 141.222C558.846 141.937 557.682 142.294 556.323 142.294ZM556.323 139.986C557.521 139.986 558.457 139.402 559.131 138.232C559.811 137.063 560.151 135.372 560.151 133.159C560.151 131.69 559.995 130.449 559.684 129.435C559.379 128.415 558.938 127.643 558.362 127.119C557.792 126.589 557.112 126.324 556.323 126.324C555.13 126.324 554.194 126.911 553.514 128.087C552.834 129.262 552.491 130.953 552.486 133.159C552.486 134.634 552.638 135.882 552.944 136.901C553.255 137.915 553.695 138.684 554.266 139.209C554.836 139.727 555.522 139.986 556.323 139.986Z" fill="black"/>
<path d="M498.305 191.776V194.023H490.458V191.776H498.305ZM507.176 203.961V181.838H508.593V203.961H507.176ZM511.609 188.699C511.517 187.881 511.137 187.248 510.468 186.798C509.8 186.343 508.959 186.116 507.945 186.116C507.219 186.116 506.591 186.231 506.061 186.461C505.531 186.686 505.119 186.997 504.825 187.395C504.537 187.786 504.393 188.233 504.393 188.734C504.393 189.155 504.491 189.518 504.687 189.823C504.889 190.128 505.151 190.385 505.473 190.592C505.802 190.794 506.153 190.964 506.528 191.102C506.902 191.234 507.262 191.344 507.608 191.43L509.336 191.88C509.901 192.018 510.48 192.205 511.073 192.441C511.667 192.678 512.217 192.989 512.724 193.375C513.231 193.761 513.64 194.239 513.951 194.809C514.268 195.38 514.426 196.062 514.426 196.857C514.426 197.86 514.167 198.75 513.649 199.528C513.136 200.306 512.39 200.919 511.41 201.368C510.437 201.818 509.259 202.043 507.876 202.043C506.551 202.043 505.404 201.832 504.436 201.412C503.469 200.991 502.711 200.395 502.164 199.623C501.616 198.845 501.314 197.923 501.256 196.857H503.935C503.987 197.497 504.194 198.03 504.557 198.456C504.926 198.877 505.396 199.191 505.966 199.398C506.542 199.6 507.173 199.701 507.859 199.701C508.613 199.701 509.285 199.582 509.872 199.346C510.466 199.104 510.932 198.77 511.272 198.344C511.612 197.912 511.782 197.408 511.782 196.831C511.782 196.307 511.632 195.878 511.333 195.544C511.039 195.21 510.638 194.933 510.131 194.714C509.63 194.495 509.063 194.302 508.429 194.135L506.338 193.565C504.92 193.179 503.797 192.611 502.967 191.862C502.143 191.113 501.732 190.122 501.732 188.89C501.732 187.87 502.008 186.98 502.561 186.219C503.114 185.459 503.863 184.868 504.808 184.448C505.753 184.021 506.819 183.808 508.006 183.808C509.204 183.808 510.261 184.018 511.177 184.439C512.099 184.86 512.825 185.439 513.355 186.176C513.885 186.908 514.161 187.749 514.185 188.699H511.609ZM530.531 184.05V201.749H527.852V186.729H527.748L523.513 189.495V186.937L527.929 184.05H530.531ZM541.48 202.043C540.115 202.037 538.948 201.677 537.98 200.962C537.012 200.248 536.272 199.208 535.759 197.843C535.246 196.477 534.99 194.832 534.99 192.908C534.99 190.99 535.246 189.35 535.759 187.991C536.278 186.631 537.021 185.594 537.989 184.88C538.962 184.165 540.126 183.808 541.48 183.808C542.834 183.808 543.995 184.168 544.963 184.888C545.931 185.603 546.671 186.64 547.184 187.999C547.702 189.353 547.961 190.99 547.961 192.908C547.961 194.838 547.705 196.486 547.192 197.851C546.68 199.211 545.939 200.251 544.971 200.971C544.003 201.685 542.84 202.043 541.48 202.043ZM541.48 199.735C542.678 199.735 543.615 199.15 544.289 197.981C544.968 196.811 545.308 195.12 545.308 192.908C545.308 191.439 545.153 190.197 544.842 189.183C544.536 188.164 544.096 187.392 543.519 186.867C542.949 186.337 542.269 186.072 541.48 186.072C540.287 186.072 539.351 186.66 538.671 187.835C537.992 189.011 537.649 190.702 537.643 192.908C537.643 194.383 537.796 195.63 538.101 196.65C538.412 197.664 538.853 198.433 539.423 198.957C539.994 199.476 540.679 199.735 541.48 199.735ZM557.189 202.043C555.823 202.037 554.657 201.677 553.689 200.962C552.721 200.248 551.981 199.208 551.468 197.843C550.955 196.477 550.699 194.832 550.699 192.908C550.699 190.99 550.955 189.35 551.468 187.991C551.986 186.631 552.73 185.594 553.697 184.88C554.671 184.165 555.835 183.808 557.189 183.808C558.543 183.808 559.704 184.168 560.671 184.888C561.639 185.603 562.38 186.64 562.892 187.999C563.411 189.353 563.67 190.99 563.67 192.908C563.67 194.838 563.414 196.486 562.901 197.851C562.388 199.211 561.648 200.251 560.68 200.971C559.712 201.685 558.548 202.043 557.189 202.043ZM557.189 199.735C558.387 199.735 559.323 199.15 559.997 197.981C560.677 196.811 561.017 195.12 561.017 192.908C561.017 191.439 560.862 190.197 560.55 189.183C560.245 188.164 559.804 187.392 559.228 186.867C558.658 186.337 557.978 186.072 557.189 186.072C555.996 186.072 555.06 186.66 554.38 187.835C553.7 189.011 553.358 190.702 553.352 192.908C553.352 194.383 553.504 195.63 553.81 196.65C554.121 197.664 554.562 198.433 555.132 198.957C555.702 199.476 556.388 199.735 557.189 199.735Z" fill="black"/>
<path d="M518.725 263.279V241.156H520.142V263.279H518.725ZM523.158 248.017C523.066 247.199 522.686 246.566 522.017 246.116C521.349 245.661 520.508 245.434 519.494 245.434C518.768 245.434 518.14 245.549 517.61 245.779C517.08 246.004 516.668 246.315 516.374 246.713C516.086 247.104 515.942 247.551 515.942 248.052C515.942 248.473 516.04 248.836 516.236 249.141C516.437 249.446 516.7 249.703 517.022 249.91C517.351 250.112 517.702 250.282 518.077 250.42C518.451 250.552 518.811 250.662 519.157 250.748L520.885 251.198C521.45 251.336 522.029 251.523 522.622 251.759C523.216 251.996 523.766 252.307 524.273 252.693C524.78 253.079 525.189 253.557 525.5 254.127C525.817 254.698 525.975 255.38 525.975 256.175C525.975 257.178 525.716 258.068 525.197 258.846C524.685 259.624 523.939 260.237 522.959 260.686C521.986 261.136 520.807 261.361 519.425 261.361C518.1 261.361 516.953 261.15 515.985 260.73C515.017 260.309 514.26 259.713 513.712 258.941C513.165 258.163 512.863 257.241 512.805 256.175H515.484C515.536 256.815 515.743 257.348 516.106 257.774C516.475 258.195 516.944 258.509 517.515 258.716C518.091 258.918 518.722 259.019 519.407 259.019C520.162 259.019 520.833 258.901 521.421 258.664C522.014 258.422 522.481 258.088 522.821 257.662C523.161 257.23 523.331 256.726 523.331 256.149C523.331 255.625 523.181 255.196 522.881 254.862C522.588 254.528 522.187 254.251 521.68 254.032C521.179 253.813 520.612 253.62 519.978 253.453L517.886 252.883C516.469 252.497 515.346 251.929 514.516 251.18C513.692 250.431 513.28 249.441 513.28 248.208C513.28 247.188 513.557 246.298 514.11 245.537C514.663 244.777 515.412 244.186 516.357 243.766C517.302 243.339 518.367 243.126 519.554 243.126C520.753 243.126 521.81 243.336 522.726 243.757C523.648 244.178 524.374 244.757 524.904 245.494C525.434 246.226 525.71 247.067 525.733 248.017H523.158ZM535.365 261.067V259.131L541.354 252.926C541.993 252.252 542.52 251.661 542.935 251.154C543.356 250.642 543.67 250.155 543.877 249.694C544.084 249.233 544.188 248.743 544.188 248.225C544.188 247.637 544.05 247.13 543.773 246.704C543.497 246.272 543.119 245.941 542.641 245.71C542.163 245.474 541.624 245.356 541.025 245.356C540.391 245.356 539.838 245.485 539.366 245.745C538.893 246.004 538.53 246.37 538.277 246.842C538.023 247.315 537.897 247.868 537.897 248.501H535.347C535.347 247.424 535.595 246.482 536.091 245.676C536.586 244.869 537.266 244.244 538.13 243.8C538.994 243.351 539.977 243.126 541.077 243.126C542.189 243.126 543.168 243.348 544.015 243.792C544.868 244.229 545.533 244.829 546.011 245.589C546.49 246.344 546.729 247.196 546.729 248.147C546.729 248.804 546.605 249.446 546.357 250.074C546.115 250.702 545.692 251.402 545.087 252.174C544.482 252.94 543.641 253.871 542.563 254.966L539.046 258.647V258.777H547.014V261.067H535.365ZM556.451 261.361C555.085 261.355 553.919 260.995 552.951 260.28C551.983 259.566 551.243 258.526 550.73 257.161C550.217 255.795 549.961 254.15 549.961 252.226C549.961 250.308 550.217 248.668 550.73 247.309C551.248 245.949 551.992 244.912 552.96 244.198C553.933 243.483 555.097 243.126 556.451 243.126C557.805 243.126 558.966 243.486 559.934 244.206C560.901 244.921 561.642 245.958 562.155 247.317C562.673 248.671 562.932 250.308 562.932 252.226C562.932 254.156 562.676 255.804 562.163 257.169C561.65 258.529 560.91 259.569 559.942 260.289C558.974 261.003 557.811 261.361 556.451 261.361ZM556.451 259.053C557.649 259.053 558.585 258.468 559.26 257.299C559.939 256.129 560.279 254.438 560.279 252.226C560.279 250.757 560.124 249.515 559.813 248.501C559.507 247.482 559.067 246.71 558.49 246.185C557.92 245.655 557.24 245.39 556.451 245.39C555.258 245.39 554.322 245.978 553.642 247.153C552.962 248.329 552.62 250.02 552.614 252.226C552.614 253.701 552.767 254.948 553.072 255.968C553.383 256.982 553.824 257.751 554.394 258.275C554.965 258.794 555.65 259.053 556.451 259.053Z" fill="black"/>
<rect x="3.59863" y="291.301" width="584.054" height="1.52098" fill="#155129"/>
<rect x="3.99805" y="446" width="219" height="69" rx="8.07999" fill="#155129"/>
<path d="M77.508 478.435H74.1959C74.1354 478.007 74.0119 477.626 73.8254 477.294C73.6389 476.956 73.3994 476.669 73.1071 476.432C72.8147 476.195 72.4769 476.013 72.0938 475.887C71.7157 475.761 71.3049 475.698 70.8612 475.698C70.0597 475.698 69.3615 475.897 68.7667 476.295C68.1718 476.689 67.7106 477.263 67.3829 478.02C67.0552 478.771 66.8914 479.683 66.8914 480.757C66.8914 481.861 67.0552 482.788 67.3829 483.54C67.7156 484.291 68.1794 484.858 68.7742 485.241C69.3691 485.624 70.0572 485.816 70.8386 485.816C71.2771 485.816 71.6829 485.758 72.056 485.642C72.4341 485.526 72.7693 485.357 73.0617 485.135C73.3541 484.908 73.5961 484.633 73.7876 484.311C73.9842 483.988 74.1203 483.62 74.1959 483.207L77.508 483.222C77.4223 483.933 77.208 484.618 76.8652 485.279C76.5275 485.934 76.0712 486.521 75.4965 487.041C74.9269 487.555 74.2464 487.963 73.4549 488.266C72.6685 488.563 71.7787 488.712 70.7856 488.712C69.4044 488.712 68.1693 488.399 67.0804 487.774C65.9966 487.149 65.1396 486.244 64.5094 485.059C63.8844 483.875 63.5718 482.441 63.5718 480.757C63.5718 479.068 63.8894 477.631 64.5246 476.447C65.1598 475.262 66.0218 474.36 67.1107 473.74C68.1995 473.115 69.4245 472.802 70.7856 472.802C71.6829 472.802 72.5147 472.928 73.281 473.18C74.0523 473.432 74.7353 473.8 75.3302 474.284C75.925 474.763 76.409 475.35 76.782 476.046C77.1601 476.742 77.4021 477.538 77.508 478.435ZM83.0166 481.785V488.5H79.7954V473.014H82.9259V478.934H83.062C83.3241 478.249 83.7476 477.712 84.3324 477.324C84.9171 476.931 85.6506 476.734 86.5328 476.734C87.3394 476.734 88.0426 476.91 88.6425 477.263C89.2474 477.611 89.7163 478.113 90.049 478.768C90.3867 479.418 90.5531 480.197 90.548 481.105V488.5H87.3268V481.679C87.3318 480.964 87.1503 480.406 86.7823 480.008C86.4194 479.61 85.9102 479.411 85.2549 479.411C84.8163 479.411 84.4281 479.504 84.0904 479.691C83.7577 479.877 83.4955 480.149 83.304 480.507C83.1174 480.86 83.0217 481.286 83.0166 481.785ZM98.3763 488.727C97.1815 488.727 96.1531 488.485 95.2911 488.001C94.4341 487.512 93.7737 486.821 93.3099 485.929C92.8462 485.032 92.6143 483.971 92.6143 482.746C92.6143 481.551 92.8462 480.502 93.3099 479.6C93.7737 478.698 94.4265 477.994 95.2684 477.49C96.1153 476.986 97.1084 476.734 98.2477 476.734C99.014 476.734 99.7273 476.858 100.388 477.105C101.053 477.347 101.633 477.712 102.127 478.201C102.626 478.69 103.014 479.305 103.291 480.046C103.569 480.782 103.707 481.644 103.707 482.632V483.517H93.8998V481.521H100.675C100.675 481.057 100.574 480.646 100.373 480.288C100.171 479.93 99.8911 479.65 99.5332 479.449C99.1803 479.242 98.7695 479.139 98.3006 479.139C97.8117 479.139 97.3781 479.252 97 479.479C96.627 479.701 96.3346 480.001 96.1229 480.379C95.9112 480.752 95.8028 481.168 95.7977 481.626V483.524C95.7977 484.099 95.9036 484.596 96.1153 485.014C96.3321 485.432 96.6371 485.755 97.0303 485.982C97.4235 486.209 97.8898 486.322 98.4292 486.322C98.7871 486.322 99.1148 486.272 99.4122 486.171C99.7096 486.07 99.9642 485.919 100.176 485.717C100.388 485.516 100.549 485.269 100.66 484.976L103.639 485.173C103.488 485.889 103.178 486.514 102.709 487.048C102.245 487.577 101.645 487.991 100.909 488.288C100.178 488.581 99.3341 488.727 98.3763 488.727ZM111.057 488.727C109.867 488.727 108.844 488.475 107.987 487.971C107.135 487.462 106.48 486.756 106.021 485.853C105.567 484.951 105.341 483.913 105.341 482.738C105.341 481.548 105.57 480.505 106.029 479.607C106.492 478.705 107.15 478.002 108.002 477.498C108.854 476.989 109.867 476.734 111.042 476.734C112.055 476.734 112.943 476.918 113.704 477.286C114.465 477.654 115.067 478.171 115.511 478.836C115.955 479.502 116.199 480.283 116.244 481.18H113.205C113.119 480.601 112.892 480.134 112.524 479.781C112.161 479.423 111.685 479.245 111.095 479.245C110.596 479.245 110.16 479.381 109.787 479.653C109.419 479.92 109.131 480.311 108.925 480.825C108.718 481.339 108.615 481.962 108.615 482.693C108.615 483.434 108.716 484.064 108.917 484.583C109.124 485.102 109.414 485.498 109.787 485.77C110.16 486.042 110.596 486.179 111.095 486.179C111.463 486.179 111.793 486.103 112.086 485.952C112.383 485.8 112.627 485.581 112.819 485.294C113.016 485.001 113.144 484.651 113.205 484.243H116.244C116.194 485.13 115.952 485.911 115.519 486.587C115.09 487.257 114.498 487.782 113.742 488.16C112.985 488.538 112.091 488.727 111.057 488.727ZM121.226 485.158L121.233 481.294H121.702L125.422 476.885H129.12L124.122 482.723H123.358L121.226 485.158ZM118.307 488.5V473.014H121.528V488.5H118.307ZM125.566 488.5L122.148 483.441L124.296 481.165L129.339 488.5H125.566ZM135.47 488.727C134.295 488.727 133.28 488.477 132.423 487.978C131.571 487.474 130.913 486.773 130.449 485.876C129.985 484.974 129.753 483.928 129.753 482.738C129.753 481.538 129.985 480.49 130.449 479.592C130.913 478.69 131.571 477.989 132.423 477.49C133.28 476.986 134.295 476.734 135.47 476.734C136.645 476.734 137.658 476.986 138.51 477.49C139.367 477.989 140.027 478.69 140.491 479.592C140.955 480.49 141.187 481.538 141.187 482.738C141.187 483.928 140.955 484.974 140.491 485.876C140.027 486.773 139.367 487.474 138.51 487.978C137.658 488.477 136.645 488.727 135.47 488.727ZM135.485 486.232C136.019 486.232 136.466 486.08 136.824 485.778C137.181 485.47 137.451 485.052 137.633 484.523C137.819 483.993 137.912 483.391 137.912 482.715C137.912 482.04 137.819 481.437 137.633 480.908C137.451 480.379 137.181 479.96 136.824 479.653C136.466 479.345 136.019 479.192 135.485 479.192C134.946 479.192 134.492 479.345 134.124 479.653C133.761 479.96 133.486 480.379 133.3 480.908C133.118 481.437 133.028 482.04 133.028 482.715C133.028 483.391 133.118 483.993 133.3 484.523C133.486 485.052 133.761 485.47 134.124 485.778C134.492 486.08 134.946 486.232 135.485 486.232ZM150.729 483.555V476.885H153.951V488.5H150.858V486.39H150.737C150.475 487.071 150.039 487.618 149.429 488.031C148.824 488.445 148.085 488.651 147.213 488.651C146.437 488.651 145.754 488.475 145.164 488.122C144.574 487.769 144.113 487.267 143.78 486.617C143.453 485.967 143.286 485.188 143.281 484.281V476.885H146.502V483.706C146.508 484.391 146.692 484.933 147.054 485.332C147.417 485.73 147.904 485.929 148.514 485.929C148.902 485.929 149.265 485.841 149.603 485.664C149.941 485.483 150.213 485.216 150.419 484.863C150.631 484.51 150.734 484.074 150.729 483.555ZM162.705 476.885V479.305H155.711V476.885H162.705ZM157.299 474.103H160.52V484.931C160.52 485.228 160.565 485.46 160.656 485.627C160.747 485.788 160.873 485.901 161.034 485.967C161.2 486.032 161.392 486.065 161.609 486.065C161.76 486.065 161.911 486.053 162.062 486.027C162.214 485.997 162.33 485.974 162.41 485.959L162.917 488.356C162.756 488.407 162.529 488.465 162.236 488.53C161.944 488.601 161.589 488.644 161.17 488.659C160.394 488.689 159.713 488.586 159.129 488.349C158.549 488.112 158.098 487.744 157.775 487.245C157.452 486.746 157.294 486.116 157.299 485.354V474.103Z" fill="white"/>
</svg>
