<svg width="208" height="40" viewBox="0 0 208 40" fill="none" xmlns="http://www.w3.org/2000/svg">
<g clip-path="url(#clip0_421_329)">
<path fill-rule="evenodd" clip-rule="evenodd" d="M15.9489 4.48486C18.8335 4.51778 21.4394 5.22672 23.7667 6.61169C26.0662 7.96902 27.9791 9.89358 29.3224 12.2014C30.6989 14.5427 31.4036 17.1644 31.4364 20.0665C31.3547 24.0374 30.1022 27.4288 27.6791 30.241C25.256 33.0531 22.1526 34.7928 18.9399 35.4598V24.3268H21.9772L22.6641 19.9518H18.0649V17.0863C18.0394 16.4923 18.2272 15.9087 18.5945 15.4411C18.9623 14.9722 19.61 14.7258 20.5376 14.7018H23.3149V10.8694C23.2751 10.8566 22.8969 10.8059 22.1805 10.7173C21.3681 10.6222 20.551 10.5715 19.733 10.5652C17.8817 10.5737 16.4175 11.096 15.3405 12.1319C14.2634 13.1676 13.7133 14.6659 13.6899 16.627V19.9518H10.1899V24.3268H13.6899V35.4598C9.74526 34.7928 6.64181 33.0531 4.21869 30.241C1.79556 27.4288 0.543188 24.0374 0.461426 20.0665C0.494138 17.1643 1.1988 14.5425 2.5754 12.2014C3.9187 9.89359 5.83158 7.96902 8.13113 6.61169C10.4584 5.22699 13.0643 4.51805 15.9489 4.48486Z" fill="white"/>
</g>
<path d="M92.0002 20.48C92.2402 11.32 84.8802 3.87997 75.7602 3.99997C67.0002 4.11997 59.9202 11.36 60.0002 20.12C60.0402 26.4 63.7202 31.8 69.0002 34.4C69.3202 34.56 69.6802 34.32 69.6402 33.96C69.6002 32.92 69.6402 31.84 69.8402 30.96C70.0402 30.08 70.8402 26.72 71.3602 24.52C71.6002 23.44 71.6402 22.32 71.4402 21.24C71.3602 20.88 71.3202 20.48 71.3202 20C71.3202 17.64 72.6802 15.88 74.4002 15.88C75.8402 15.88 76.5602 16.96 76.5602 18.28C76.5602 19.72 75.6402 21.92 75.1602 23.96C74.7602 25.64 76.0002 27.04 77.6802 27.04C80.7202 27.04 83.0402 23.84 83.0402 19.24C83.0402 15.16 80.1202 12.32 75.9202 12.32C71.0802 12.32 68.2402 15.96 68.2402 19.72C68.2402 21.2 68.8002 22.76 69.5202 23.6C69.6402 23.76 69.6802 23.92 69.6402 24.08C69.5202 24.6 69.2402 25.76 69.1602 26C69.0802 26.32 68.9202 26.36 68.6002 26.24C66.4802 25.2 65.1202 22.08 65.1202 19.6C65.1202 14.24 69.0002 9.31997 76.3602 9.31997C82.2402 9.31997 86.8402 13.52 86.8402 19.16C86.8402 25.04 83.1602 29.72 78.0002 29.72C76.6402 29.72 75.3602 29.16 74.6002 28.4C74.3602 28.16 73.9602 28.28 73.8802 28.6C73.6002 29.6 73.2002 31.28 73.0402 31.8C72.8002 32.76 72.2802 33.88 71.7202 34.88C71.5602 35.12 71.7202 35.48 72.0002 35.52C73.3202 35.84 74.6802 36.04 76.0802 36C84.5602 35.92 91.7602 28.88 92.0002 20.48Z" fill="white"/>
<g clip-path="url(#clip1_421_329)">
<path d="M136.315 35.9999C136.209 35.9999 136.103 35.9999 135.996 35.9994C133.488 36.0055 131.17 35.9418 128.917 35.8046C126.85 35.6789 124.964 34.9648 123.461 33.7397C122.012 32.5575 121.022 30.9591 120.519 28.9894C120.082 27.2746 120.058 25.5912 120.036 23.963C120.02 22.7948 120.003 21.4106 120 20.0028C120.003 18.5893 120.02 17.205 120.036 16.0368C120.058 14.4088 120.082 12.7255 120.519 11.0104C121.022 9.04068 122.012 7.44229 123.461 6.26016C124.964 5.03507 126.85 4.32096 128.917 4.19522C131.171 4.05826 133.489 3.99429 136.002 4.0004C138.511 3.99503 140.828 4.05826 143.082 4.19522C145.149 4.32096 147.035 5.03507 148.537 6.26016C149.987 7.44229 150.977 9.04068 151.48 11.0104C151.917 12.7253 151.94 14.4088 151.963 16.0368C151.979 17.205 151.996 18.5893 151.999 19.997V20.0028C151.996 21.4106 151.979 22.7948 151.963 23.963C151.94 25.591 151.917 27.2743 151.48 28.9894C150.977 30.9591 149.987 32.5575 148.537 33.7397C147.035 34.9648 145.149 35.6789 143.082 35.8046C140.924 35.9359 138.707 35.9999 136.315 35.9999ZM135.996 33.4994C138.464 33.5053 140.729 33.443 142.93 33.3092C144.493 33.2143 145.848 32.7072 146.958 31.8022C147.983 30.9655 148.69 29.8112 149.057 28.3712C149.422 26.9438 149.443 25.411 149.463 23.9289C149.479 22.7685 149.495 21.394 149.499 19.9999C149.495 18.6056 149.479 17.2314 149.463 16.071C149.443 14.5888 149.422 13.0561 149.057 11.6283C148.69 10.1884 147.983 9.03409 146.958 8.19742C145.848 7.29263 144.493 6.78555 142.93 6.69058C140.729 6.55655 138.464 6.49478 136.002 6.50015C133.535 6.49429 131.269 6.55655 129.068 6.69058C127.506 6.78555 126.151 7.29263 125.041 8.19742C124.015 9.03409 123.309 10.1884 122.941 11.6283C122.577 13.0561 122.556 14.5885 122.536 16.071C122.52 17.2323 122.503 18.6076 122.5 20.0028C122.503 21.392 122.52 22.7675 122.536 23.9289C122.556 25.411 122.577 26.9438 122.941 28.3712C123.309 29.8112 124.015 30.9655 125.041 31.8022C126.151 32.7069 127.506 33.214 129.068 33.309C131.269 33.443 133.536 33.5055 135.996 33.4994ZM135.937 27.8124C131.629 27.8124 128.124 24.3078 128.124 19.9999C128.124 15.692 131.629 12.1874 135.937 12.1874C140.245 12.1874 143.749 15.692 143.749 19.9999C143.749 24.3078 140.245 27.8124 135.937 27.8124ZM135.937 14.6874C133.008 14.6874 130.624 17.0707 130.624 19.9999C130.624 22.9291 133.008 25.3124 135.937 25.3124C138.866 25.3124 141.249 22.9291 141.249 19.9999C141.249 17.0707 138.866 14.6874 135.937 14.6874ZM144.624 9.68741C143.589 9.68741 142.749 10.5268 142.749 11.5624C142.749 12.5981 143.589 13.4374 144.624 13.4374C145.66 13.4374 146.499 12.5981 146.499 11.5624C146.499 10.5268 145.66 9.68741 144.624 9.68741Z" fill="white"/>
</g>
<path d="M204.768 12.0641C203.808 12.4801 202.816 12.7681 201.76 12.8961C202.848 12.2561 203.68 11.2321 204.064 9.9841C203.04 10.5921 201.92 11.0081 200.736 11.2641C199.776 10.2401 198.4 9.6001 196.896 9.6001C193.984 9.6001 191.648 11.9681 191.648 14.8481C191.648 15.2641 191.68 15.6481 191.776 16.0321C187.424 15.8401 183.584 13.7281 180.992 10.5601C179.136 13.8881 181.216 16.6401 182.592 17.5681C181.76 17.5681 180.928 17.3121 180.224 16.9281C180.224 19.5201 182.048 21.6641 184.416 22.1441C183.904 22.3041 182.752 22.4001 182.048 22.2401C182.72 24.3201 184.672 25.8561 186.944 25.8881C185.152 27.2961 182.528 28.4161 179.168 28.0641C181.504 29.5681 184.256 30.4321 187.232 30.4321C196.896 30.4321 202.144 22.4321 202.144 15.5201C202.144 15.2961 202.144 15.0721 202.112 14.8481C203.2 14.0481 204.096 13.1201 204.768 12.0641Z" fill="white"/>
<defs>
<clipPath id="clip0_421_329">
<rect width="32" height="32" fill="white" transform="translate(0 4)"/>
</clipPath>
<clipPath id="clip1_421_329">
<rect width="32" height="32" fill="white" transform="translate(120 4)"/>
</clipPath>
</defs>
</svg>
