<svg width="33" height="32" viewBox="0 0 33 32" fill="none" xmlns="http://www.w3.org/2000/svg">
<path d="M3.69995 16.8C3.69995 15.4745 4.77447 14.4 6.09995 14.4C7.42543 14.4 8.49995 15.4745 8.49995 16.8V26.4C8.49995 27.7255 7.42543 28.8 6.09995 28.8C4.77447 28.8 3.69995 27.7255 3.69995 26.4V16.8Z" fill="#155129"/>
<path d="M10.1 16.5333V25.2223C10.1 26.4344 10.7848 27.5424 11.8689 28.0845L11.9486 28.1243C12.8373 28.5687 13.8172 28.8 14.8108 28.8H23.4766C25.002 28.8 26.3153 27.7233 26.6144 26.2276L28.5344 16.6276C28.9305 14.6475 27.4159 12.8 25.3966 12.8H19.7V6.40001C19.7 4.6327 18.2673 3.20001 16.5 3.20001C15.6163 3.20001 14.9 3.91636 14.9 4.80001V5.86668C14.9 7.25145 14.4508 8.59886 13.62 9.70668L11.38 12.6933C10.5491 13.8012 10.1 15.1486 10.1 16.5333Z" fill="#155129"/>
</svg>
